HIERARCHY
ROOT Hips
{
	OFFSET -3.958830 18.904000 13.208200
	CHANNELS 6 Xposition Yposition Zposition Zrotation Yrotation Xrotation 
	JOINT LHipJoint
	{
		OFFSET 0.000000 0.000000 0.000000
		CHANNELS 3 Zrotation Yrotation Xrotation
		JOINT LeftUpLeg
		{
			OFFSET 1.800000 -1.400000 0.085000
			CHANNELS 3 Zrotation Yrotation Xrotation
			JOINT LeftLeg
			{
				OFFSET 2.215000 -6.000000 0.000000
				CHANNELS 3 Zrotation Yrotation Xrotation
				JOINT LeftFoot
				{
					OFFSET 2.500000 -6.900000 0.000000
					CHANNELS 3 Zrotation Yrotation Xrotation
					JOINT LeftToeBase
					{
						OFFSET 0.200000 -0.500000 1.950000
						CHANNELS 3 Zrotation Yrotation Xrotation
						End Site
						{
							OFFSET 0.000000 0.000000 0.000000
						}
					}
				}
			}
		}
	}
	JOINT RHipJoint
	{
		OFFSET 0.000000 0.000000 0.000000
		CHANNELS 3 Zrotation Yrotation Xrotation
		JOINT RightUpLeg
		{
			OFFSET -1.800000 -1.400000 0.085000
			CHANNELS 3 Zrotation Yrotation Xrotation
			JOINT RightLeg
			{
				OFFSET -2.215000 -6.000000 0.000000
				CHANNELS 3 Zrotation Yrotation Xrotation
				JOINT RightFoot
				{
					OFFSET -2.500000 -6.900000 0.000000
					CHANNELS 3 Zrotation Yrotation Xrotation
					JOINT RightToeBase
					{
						OFFSET -0.200000 -0.500000 1.950000
						CHANNELS 3 Zrotation Yrotation Xrotation
						End Site
						{
							OFFSET 0.000000 0.000000 0.000000
						}
					}
				}
			}
		}
	}
	JOINT LowerBack
	{
		OFFSET 0.000000 0.000000 0.000000
		CHANNELS 3 Zrotation Yrotation Xrotation
		JOINT Spine
		{
			OFFSET -0.087000 1.940000 -0.288900
			CHANNELS 3 Zrotation Yrotation Xrotation
			JOINT Spine1
			{
				OFFSET 0.000000 1.950000 0.060000
				CHANNELS 3 Zrotation Yrotation Xrotation
				JOINT Neck
				{
					OFFSET 0.000000 0.000000 0.000000
					CHANNELS 3 Zrotation Yrotation Xrotation
					JOINT Neck1
					{
						OFFSET 0.000000 1.600000 0.340000
						CHANNELS 3 Zrotation Yrotation Xrotation
						JOINT Head
						{
							OFFSET 0.000000 1.667000 -0.240000
							CHANNELS 3 Zrotation Yrotation Xrotation
							End Site
							{
								OFFSET 0.000000 0.000000 0.000000
							}
						}
					}
				}
				JOINT LeftShoulder
				{
					OFFSET 0.000000 0.000000 0.000000
					CHANNELS 3 Zrotation Yrotation Xrotation
					JOINT LeftArm
					{
						OFFSET 2.700000 1.550000 -0.730000
						CHANNELS 3 Zrotation Yrotation Xrotation
						JOINT LeftForeArm
						{
							OFFSET 5.450000 0.000000 0.000000
							CHANNELS 3 Zrotation Yrotation Xrotation
							JOINT LeftHand
							{
								OFFSET 3.450000 0.000000 0.000000
								CHANNELS 3 Zrotation Yrotation Xrotation
								JOINT LeftHandIndex1
								{
									OFFSET 0.750000 0.000000 0.000000
									CHANNELS 3 Zrotation Yrotation Xrotation
									End Site
									{
										OFFSET 0.000000 0.000000 0.000000
									}
								}
							}
						}
					}
				}
				JOINT RightShoulder
				{
					OFFSET 0.000000 0.000000 0.000000
					CHANNELS 3 Zrotation Yrotation Xrotation
					JOINT RightArm
					{
						OFFSET -2.700000 1.550000 -0.730000
						CHANNELS 3 Zrotation Yrotation Xrotation
						JOINT RightForeArm
						{
							OFFSET -5.450000 0.000000 0.000000
							CHANNELS 3 Zrotation Yrotation Xrotation
							JOINT RightHand
							{
								OFFSET -3.450000 0.000000 0.000000
								CHANNELS 3 Zrotation Yrotation Xrotation
								JOINT RightHandIndex1
								{
									OFFSET -0.750000 0.000000 0.000000
									CHANNELS 3 Zrotation Yrotation Xrotation
									End Site
									{
										OFFSET 0.000000 0.000000 0.000000
									}
								}
							}
						}
					}
				}
			}
		}
	}
}
MOTION
Frames: 12
Frame Time: 0.016667
0.538120 16.732570 -2.130570 -1.784446 -2.090196 8.326016 -15.161571 12.999662 2.722826 9.945421 -1.569014 -13.404342 -5.868985 4.309597 5.161089 -0.172808 3.536760 3.436769 0.184170 0.160960 0.020430 18.273411 -10.949002 2.468672 -11.145574 0.590599 -12.579543 4.554739 -3.536409 6.447991 0.055122 -3.364713 3.265649 0.233630 0.316630 0.121640 -3.566536 -1.135922 -6.653523 4.916687 0.611416 2.138476 -1.096170 0.496027 1.716162 0.922286 -1.973134 -4.319235 -3.364733 0.891253 22.855446 -1.728480 0.753290 -1.433490 -34.060760 -3.131826 0.582360 -48.480663 -2.031504 -2.701603 -8.025443 -10.578972 -0.337433 -4.031515 3.153114 -0.177320 0.317030 -0.238150 0.157010 32.459684 5.250325 2.388934 49.856434 0.303704 -4.612623 8.123226 12.164965 -0.845985 2.448053 -1.561288 -0.067000 0.073050 -0.037840 0.017410 
0.539690 16.733530 -2.131280 -1.851055 -2.144489 8.308359 -15.157899 12.996207 2.730842 10.040330 -1.567238 -13.409811 -5.974501 4.328871 5.144550 -0.171983 3.547604 3.430567 0.186920 0.163190 0.024120 18.275872 -10.958538 2.462461 -11.053577 0.596522 -12.649665 4.472296 -3.536428 6.600877 0.055618 -3.352809 3.268500 0.234250 0.312330 0.122540 -3.574104 -1.117793 -6.657975 5.024636 0.630453 2.199614 -1.106306 0.514665 1.686340 0.955543 -1.929756 -4.289293 -3.298697 0.841038 22.934793 -1.783970 0.748960 -1.503550 -34.135761 -3.103625 0.551370 -48.466242 -2.038968 -2.706586 -8.061461 -10.561385 -0.337581 -4.029606 3.152604 -0.174830 0.314930 -0.235140 0.156170 32.460574 5.195092 2.357347 49.715426 0.337951 -4.571247 8.161857 12.043705 -0.840406 2.449462 -1.559945 -0.065660 0.071570 -0.039190 0.015760 
0.539540 16.734420 -2.133140 -1.939464 -2.320038 8.329061 -15.156484 12.998997 2.734625 10.130533 -1.561507 -13.430604 -6.034466 4.350602 5.189689 -0.171807 3.554105 3.426776 0.192930 0.170320 0.028240 18.276417 -10.963395 2.460040 -10.914630 0.610199 -12.743292 4.348825 -3.509601 6.681771 0.055915 -3.329062 3.277058 0.238290 0.308370 0.119450 -3.574242 -1.113597 -6.661036 5.078799 0.637852 2.280876 -0.969424 0.522328 1.656195 0.907383 -1.954530 -4.253554 -3.351136 0.802441 22.957159 -1.660030 0.646230 -1.717440 -34.109342 -3.024031 0.529220 -48.619724 -2.024902 -2.733389 -8.175170 -10.629182 -0.333450 -4.023924 3.148642 -0.170930 0.309450 -0.231160 0.157830 32.531556 5.161236 2.295142 49.522402 0.456872 -4.501530 8.049529 11.851706 -0.841631 2.451994 -1.555778 -0.065410 0.075600 -0.042930 0.015570 
0.539100 16.734330 -2.132630 -1.952965 -2.406179 8.371375 -15.156603 12.998476 2.733723 10.119793 -1.559432 -13.442023 -6.098487 4.372758 5.261670 -0.172026 3.556928 3.424833 0.199250 0.179020 0.030220 18.276597 -10.957544 2.464837 -10.912758 0.621641 -12.797875 4.412416 -3.504015 6.635767 0.054749 -3.323548 3.278928 0.243720 0.306070 0.116660 -3.573774 -1.118913 -6.662004 5.089101 0.647988 2.308921 -0.869643 0.535550 1.647211 0.836510 -2.063379 -4.239559 -3.527428 0.782581 22.864497 -1.567300 0.545170 -1.907700 -34.043625 -2.958654 0.503663 -48.719477 -2.040585 -2.710804 -8.353622 -10.573603 -0.325624 -4.019862 3.147897 -0.169810 0.305700 -0.229310 0.160320 32.602416 5.195517 2.282174 49.377307 0.513459 -4.450296 7.935793 11.693511 -0.849685 2.453169 -1.555412 -0.064680 0.078700 -0.046490 0.016720 
0.539200 16.732960 -2.129560 -1.954069 -2.507795 8.387904 -15.156491 13.005537 2.731111 10.101363 -1.548306 -13.409581 -6.156480 4.403637 5.379165 -0.173436 3.565283 3.420733 0.206870 0.189210 0.031380 18.276781 -10.952846 2.466542 -10.906595 0.625107 -12.798932 4.368670 -3.484075 6.571271 0.051399 -3.317566 3.281097 0.249680 0.305560 0.116830 -3.573295 -1.135983 -6.660397 5.116253 0.627645 2.328659 -0.868805 0.521442 1.620390 0.798168 -2.206254 -4.237321 -3.745017 0.939393 22.705060 -1.425270 0.591180 -2.169160 -34.057333 -2.912298 0.485555 -48.742634 -1.988550 -2.694671 -8.371438 -10.460012 -0.333277 -4.016402 3.148781 -0.166450 0.303000 -0.226220 0.164110 32.684844 5.243217 2.293428 49.212687 0.520614 -4.423573 7.973955 11.625133 -0.849135 2.450769 -1.556014 -0.063800 0.081530 -0.049280 0.017970 
0.539710 16.731150 -2.126680 -1.940243 -2.548192 8.443616 -15.153034 13.005330 2.728566 10.115511 -1.546810 -13.438660 -6.231272 4.438813 5.506327 -0.176761 3.578009 3.414781 0.205610 0.188450 0.029480 18.280289 -10.950021 2.469612 -10.929045 0.631931 -12.812848 4.355130 -3.471968 6.494757 0.052054 -3.317258 3.280380 0.250880 0.307280 0.117880 -3.583318 -1.137468 -6.659291 5.212688 0.599518 2.328666 -0.999192 0.499348 1.627024 0.816587 -2.296354 -4.258135 -3.859240 0.978983 22.527384 -1.500310 0.636030 -2.263960 -34.045940 -2.908702 0.480025 -48.719224 -1.934556 -2.702059 -8.326393 -10.402500 -0.343503 -4.020120 3.148256 -0.166520 0.305000 -0.227750 0.162730 32.616118 5.276096 2.335799 49.222832 0.451543 -4.485775 8.085794 11.826995 -0.845440 2.445402 -1.557103 -0.065120 0.082560 -0.045870 0.017160 
0.537350 16.730500 -2.123940 -1.940252 -2.565271 8.515881 -15.153309 12.989442 2.734758 10.233387 -1.554965 -13.460604 -6.379695 4.454145 5.412233 -0.178033 3.596647 3.407536 0.205510 0.186880 0.031700 18.283178 -10.935668 2.474140 -10.868110 0.638794 -12.744215 4.330162 -3.442270 6.286173 0.049175 -3.314729 3.281371 0.251140 0.307050 0.118230 -3.587051 -1.136241 -6.663720 5.225640 0.593165 2.310723 -1.119032 0.497440 1.644511 0.852595 -2.296685 -4.265778 -3.833487 0.997473 22.417196 -1.520240 0.670940 -2.408910 -33.981341 -2.875612 0.468626 -48.675849 -1.894635 -2.737414 -8.289773 -10.465341 -0.349914 -4.021668 3.145417 -0.163470 0.304740 -0.227430 0.160470 32.471238 5.222481 2.341946 49.385552 0.380580 -4.558057 8.105134 11.967281 -0.845897 2.442334 -1.554436 -0.067020 0.084650 -0.043500 0.014490 
0.538620 16.729890 -2.122110 -1.881579 -2.572120 8.557472 -15.152886 12.986027 2.744157 10.206918 -1.563473 -13.431241 -6.490232 4.459315 5.326022 -0.177884 3.603657 3.405273 0.206320 0.186120 0.035660 18.284070 -10.931362 2.469087 -10.918639 0.635452 -12.763113 4.237449 -3.424178 6.257151 0.047973 -3.304811 3.284208 0.250490 0.303760 0.116360 -3.589142 -1.144807 -6.666795 5.246536 0.539423 2.325882 -1.244851 0.453940 1.676402 0.874387 -2.357685 -4.293668 -3.931409 1.063548 22.414286 -1.527040 0.737720 -2.547030 -33.810962 -2.836191 0.466381 -48.737506 -1.891938 -2.749935 -8.329192 -10.461760 -0.350527 -4.019084 3.140588 -0.157970 0.300980 -0.224640 0.158930 32.245590 5.202667 2.346409 49.565222 0.402202 -4.599396 8.185372 12.050446 -0.837203 2.443385 -1.549527 -0.068900 0.086770 -0.043830 0.011650 
0.537450 16.729190 -2.122000 -1.881197 -2.516103 8.574177 -15.151110 12.981815 2.754652 10.338470 -1.571097 -13.490353 -6.701124 4.514489 5.405454 -0.177792 3.625429 3.393439 0.207510 0.183750 0.044620 18.283767 -10.929855 2.469735 -10.916777 0.640155 -12.813674 4.330441 -3.449642 6.326500 0.044107 -3.296557 3.284324 0.247150 0.293930 0.115410 -3.591319 -1.143042 -6.680297 5.267625 0.521233 2.416736 -1.414734 0.451241 1.722795 0.955984 -2.302572 -4.380936 -3.838137 0.988822 22.472678 -1.630080 0.771330 -2.807600 -33.623295 -2.956214 0.498552 -48.684644 -1.965316 -2.720353 -8.401943 -10.323506 -0.351010 -4.014259 3.133435 -0.147410 0.293580 -0.217550 0.153840 31.886639 5.265983 2.407971 49.876191 0.397014 -4.659376 8.319622 12.118522 -0.819767 2.445397 -1.541172 -0.069670 0.086730 -0.044130 0.005400 
0.535930 16.729440 -2.121620 -1.901327 -2.464282 8.576009 -15.146818 12.984963 2.758449 10.452156 -1.571752 -13.575238 -6.818829 4.570177 5.587843 -0.181399 3.642003 3.384232 0.206100 0.179290 0.051190 18.285272 -10.939049 2.468414 -10.844185 0.638072 -12.837300 4.347668 -3.473544 6.465911 0.041634 -3.287373 3.286143 0.243700 0.287270 0.113880 -3.599189 -1.133717 -6.687524 5.331116 0.484749 2.513999 -1.628174 0.430163 1.723076 1.049987 -2.234755 -4.416382 -3.717875 0.919843 22.531009 -1.755580 0.817040 -3.046580 -33.532062 -2.990460 0.499668 -48.582612 -1.979458 -2.733327 -8.322424 -10.266344 -0.360498 -4.011617 3.122991 -0.137380 0.288320 -0.211920 0.148980 31.592685 5.227861 2.418838 50.177798 0.405354 -4.720768 8.443392 12.217576 -0.802861 2.446069 -1.531079 -0.072590 0.089310 -0.042670 -0.000520 
0.532240 16.728440 -2.119200 -1.894816 -2.443728 8.602353 -15.146465 12.991052 2.756614 10.484626 -1.574145 -13.635893 -6.830011 4.597725 5.722892 -0.192609 3.654605 3.380171 0.199880 0.169680 0.053030 18.284579 -10.940050 2.468900 -10.824183 0.642336 -12.864206 4.344973 -3.478259 6.493395 0.044144 -3.281319 3.288624 0.241910 0.289390 0.110530 -3.598545 -1.140602 -6.687566 5.323569 0.470089 2.563798 -1.720840 0.426184 1.676326 1.073429 -2.235949 -4.399388 -3.700414 0.867547 22.435803 -1.918070 0.848880 -3.217250 -33.517639 -2.928102 0.452940 -48.370193 -1.940634 -2.733652 -8.303541 -10.179295 -0.370837 -4.017857 3.109000 -0.131030 0.289600 -0.214200 0.143150 31.522498 5.146033 2.414046 50.313197 0.293790 -4.810468 8.504759 12.323485 -0.799159 2.440255 -1.521115 -0.081270 0.097470 -0.035580 -0.006820 
0.528790 16.727880 -2.117350 -1.908518 -2.445892 8.606764 -15.145007 13.002645 2.753526 10.491258 -1.576210 -13.693689 -6.722369 4.592433 5.798479 -0.203757 3.655051 3.383211 0.190140 0.153210 0.055060 18.284193 -10.941082 2.472318 -10.779381 0.645633 -12.860220 4.359808 -3.487508 6.512107 0.046055 -3.274428 3.292745 0.235080 0.292600 0.106710 -3.599612 -1.156174 -6.691695 5.353856 0.427211 2.612617 -1.842153 0.397808 1.690998 1.095201 -2.289286 -4.471391 -3.790763 0.820738 22.437280 -2.098000 0.879070 -3.301650 -33.354723 -2.999468 0.476105 -48.290790 -1.921226 -2.692862 -8.323389 -9.906670 -0.385543 -4.024102 3.090560 -0.121780 0.289680 -0.215970 0.137400 31.303553 5.229511 2.484455 50.554205 0.227908 -4.908890 8.552827 12.446264 -0.789267 2.437048 -1.507972 -0.091770 0.106750 -0.028020 -0.013480 
